<mxfile host="app.diagrams.net" modified="2023-06-10T15:41:18.730Z" agent="Mozilla/5.0 (Windows NT 10.0; Win64; x64) AppleWebKit/537.36 (KHTML, like Gecko) Chrome/114.0.0.0 Safari/537.36" etag="AlOclP_8XXftQHFfAvBI" version="21.3.7" type="device">
  <diagram name="Page-1" id="WqdEY1ekvPiMsLtZbPPz">
    <mxGraphModel dx="1434" dy="714" grid="1" gridSize="10" guides="1" tooltips="1" connect="1" arrows="1" fold="1" page="1" pageScale="1" pageWidth="850" pageHeight="1100" math="0" shadow="0">
      <root>
        <mxCell id="0" />
        <mxCell id="1" parent="0" />
        <mxCell id="biqqrVohqAdEQUMCxgZw-33" value="" style="rounded=0;whiteSpace=wrap;html=1;" vertex="1" parent="1">
          <mxGeometry x="110" y="40" width="670" height="480" as="geometry" />
        </mxCell>
        <mxCell id="biqqrVohqAdEQUMCxgZw-1" value="Subject" style="swimlane;fontStyle=1;align=center;verticalAlign=top;childLayout=stackLayout;horizontal=1;startSize=26;horizontalStack=0;resizeParent=1;resizeParentMax=0;resizeLast=0;collapsible=1;marginBottom=0;whiteSpace=wrap;html=1;" vertex="1" parent="1">
          <mxGeometry x="180" y="70" width="160" height="80" as="geometry" />
        </mxCell>
        <mxCell id="biqqrVohqAdEQUMCxgZw-4" value="+ Attach(Observer)&lt;br&gt;+ Detach(Observer)&lt;br&gt;+ Notify()" style="text;strokeColor=none;fillColor=none;align=left;verticalAlign=top;spacingLeft=4;spacingRight=4;overflow=hidden;rotatable=0;points=[[0,0.5],[1,0.5]];portConstraint=eastwest;whiteSpace=wrap;html=1;" vertex="1" parent="biqqrVohqAdEQUMCxgZw-1">
          <mxGeometry y="26" width="160" height="54" as="geometry" />
        </mxCell>
        <mxCell id="biqqrVohqAdEQUMCxgZw-5" value="Observer" style="swimlane;fontStyle=1;align=center;verticalAlign=top;childLayout=stackLayout;horizontal=1;startSize=26;horizontalStack=0;resizeParent=1;resizeParentMax=0;resizeLast=0;collapsible=1;marginBottom=0;whiteSpace=wrap;html=1;" vertex="1" parent="1">
          <mxGeometry x="530" y="85" width="160" height="50" as="geometry" />
        </mxCell>
        <mxCell id="biqqrVohqAdEQUMCxgZw-6" value="+ Update()" style="text;strokeColor=none;fillColor=none;align=left;verticalAlign=top;spacingLeft=4;spacingRight=4;overflow=hidden;rotatable=0;points=[[0,0.5],[1,0.5]];portConstraint=eastwest;whiteSpace=wrap;html=1;" vertex="1" parent="biqqrVohqAdEQUMCxgZw-5">
          <mxGeometry y="26" width="160" height="24" as="geometry" />
        </mxCell>
        <mxCell id="biqqrVohqAdEQUMCxgZw-14" style="edgeStyle=orthogonalEdgeStyle;rounded=0;orthogonalLoop=1;jettySize=auto;html=1;entryX=0.5;entryY=1.019;entryDx=0;entryDy=0;entryPerimeter=0;endArrow=block;endFill=0;exitX=0.5;exitY=0;exitDx=0;exitDy=0;" edge="1" parent="1" source="biqqrVohqAdEQUMCxgZw-25" target="biqqrVohqAdEQUMCxgZw-4">
          <mxGeometry relative="1" as="geometry">
            <mxPoint x="260" y="290" as="sourcePoint" />
          </mxGeometry>
        </mxCell>
        <mxCell id="biqqrVohqAdEQUMCxgZw-16" style="edgeStyle=orthogonalEdgeStyle;rounded=0;orthogonalLoop=1;jettySize=auto;html=1;entryX=0.5;entryY=0.958;entryDx=0;entryDy=0;entryPerimeter=0;endArrow=block;endFill=0;exitX=0.5;exitY=0;exitDx=0;exitDy=0;" edge="1" parent="1" source="biqqrVohqAdEQUMCxgZw-29" target="biqqrVohqAdEQUMCxgZw-6">
          <mxGeometry relative="1" as="geometry">
            <mxPoint x="610" y="300" as="sourcePoint" />
          </mxGeometry>
        </mxCell>
        <mxCell id="biqqrVohqAdEQUMCxgZw-11" style="edgeStyle=orthogonalEdgeStyle;rounded=0;orthogonalLoop=1;jettySize=auto;html=1;entryX=1.019;entryY=0.769;entryDx=0;entryDy=0;exitX=0;exitY=0.5;exitDx=0;exitDy=0;entryPerimeter=0;" edge="1" parent="1" source="biqqrVohqAdEQUMCxgZw-30" target="biqqrVohqAdEQUMCxgZw-26">
          <mxGeometry relative="1" as="geometry">
            <mxPoint x="530" y="338" as="sourcePoint" />
            <mxPoint x="340" y="333" as="targetPoint" />
          </mxGeometry>
        </mxCell>
        <mxCell id="biqqrVohqAdEQUMCxgZw-13" style="edgeStyle=orthogonalEdgeStyle;rounded=0;orthogonalLoop=1;jettySize=auto;html=1;entryX=0;entryY=0.5;entryDx=0;entryDy=0;" edge="1" parent="1" source="biqqrVohqAdEQUMCxgZw-4" target="biqqrVohqAdEQUMCxgZw-6">
          <mxGeometry relative="1" as="geometry" />
        </mxCell>
        <mxCell id="biqqrVohqAdEQUMCxgZw-17" value="foreach observer:&lt;br&gt;&lt;span style=&quot;white-space: pre;&quot;&gt;&#x9;&lt;/span&gt;observer.update()" style="shape=note;whiteSpace=wrap;html=1;backgroundOutline=1;darkOpacity=0.05;align=left;" vertex="1" parent="1">
          <mxGeometry x="280" y="160" width="160" height="50" as="geometry" />
        </mxCell>
        <mxCell id="biqqrVohqAdEQUMCxgZw-22" value="observerState =&lt;br&gt;&lt;span style=&quot;white-space: pre;&quot;&gt;&#x9;&lt;/span&gt;subject.GetState()" style="shape=note;whiteSpace=wrap;html=1;backgroundOutline=1;darkOpacity=0.05;align=left;" vertex="1" parent="1">
          <mxGeometry x="580" y="430" width="160" height="50" as="geometry" />
        </mxCell>
        <mxCell id="biqqrVohqAdEQUMCxgZw-23" value="return subjectState" style="shape=note;whiteSpace=wrap;html=1;backgroundOutline=1;darkOpacity=0.05;align=left;" vertex="1" parent="1">
          <mxGeometry x="200" y="420" width="160" height="50" as="geometry" />
        </mxCell>
        <mxCell id="biqqrVohqAdEQUMCxgZw-25" value="ConcreteSubject" style="swimlane;fontStyle=1;align=center;verticalAlign=top;childLayout=stackLayout;horizontal=1;startSize=26;horizontalStack=0;resizeParent=1;resizeParentMax=0;resizeLast=0;collapsible=1;marginBottom=0;whiteSpace=wrap;html=1;" vertex="1" parent="1">
          <mxGeometry x="160" y="310" width="160" height="100" as="geometry" />
        </mxCell>
        <mxCell id="biqqrVohqAdEQUMCxgZw-26" value="+ subjectState" style="text;strokeColor=none;fillColor=none;align=left;verticalAlign=top;spacingLeft=4;spacingRight=4;overflow=hidden;rotatable=0;points=[[0,0.5],[1,0.5]];portConstraint=eastwest;whiteSpace=wrap;html=1;" vertex="1" parent="biqqrVohqAdEQUMCxgZw-25">
          <mxGeometry y="26" width="160" height="26" as="geometry" />
        </mxCell>
        <mxCell id="biqqrVohqAdEQUMCxgZw-27" value="" style="line;strokeWidth=1;fillColor=none;align=left;verticalAlign=middle;spacingTop=-1;spacingLeft=3;spacingRight=3;rotatable=0;labelPosition=right;points=[];portConstraint=eastwest;strokeColor=inherit;" vertex="1" parent="biqqrVohqAdEQUMCxgZw-25">
          <mxGeometry y="52" width="160" height="8" as="geometry" />
        </mxCell>
        <mxCell id="biqqrVohqAdEQUMCxgZw-28" value="+ GetState()&lt;br&gt;+ SetState()" style="text;strokeColor=none;fillColor=none;align=left;verticalAlign=top;spacingLeft=4;spacingRight=4;overflow=hidden;rotatable=0;points=[[0,0.5],[1,0.5]];portConstraint=eastwest;whiteSpace=wrap;html=1;" vertex="1" parent="biqqrVohqAdEQUMCxgZw-25">
          <mxGeometry y="60" width="160" height="40" as="geometry" />
        </mxCell>
        <mxCell id="biqqrVohqAdEQUMCxgZw-29" value="ConcreteObserver" style="swimlane;fontStyle=1;align=center;verticalAlign=top;childLayout=stackLayout;horizontal=1;startSize=26;horizontalStack=0;resizeParent=1;resizeParentMax=0;resizeLast=0;collapsible=1;marginBottom=0;whiteSpace=wrap;html=1;" vertex="1" parent="1">
          <mxGeometry x="530" y="330" width="160" height="90" as="geometry" />
        </mxCell>
        <mxCell id="biqqrVohqAdEQUMCxgZw-30" value="+ subjectState" style="text;strokeColor=none;fillColor=none;align=left;verticalAlign=top;spacingLeft=4;spacingRight=4;overflow=hidden;rotatable=0;points=[[0,0.5],[1,0.5]];portConstraint=eastwest;whiteSpace=wrap;html=1;" vertex="1" parent="biqqrVohqAdEQUMCxgZw-29">
          <mxGeometry y="26" width="160" height="26" as="geometry" />
        </mxCell>
        <mxCell id="biqqrVohqAdEQUMCxgZw-31" value="" style="line;strokeWidth=1;fillColor=none;align=left;verticalAlign=middle;spacingTop=-1;spacingLeft=3;spacingRight=3;rotatable=0;labelPosition=right;points=[];portConstraint=eastwest;strokeColor=inherit;" vertex="1" parent="biqqrVohqAdEQUMCxgZw-29">
          <mxGeometry y="52" width="160" height="8" as="geometry" />
        </mxCell>
        <mxCell id="biqqrVohqAdEQUMCxgZw-32" value="+ Update()" style="text;strokeColor=none;fillColor=none;align=left;verticalAlign=top;spacingLeft=4;spacingRight=4;overflow=hidden;rotatable=0;points=[[0,0.5],[1,0.5]];portConstraint=eastwest;whiteSpace=wrap;html=1;" vertex="1" parent="biqqrVohqAdEQUMCxgZw-29">
          <mxGeometry y="60" width="160" height="30" as="geometry" />
        </mxCell>
      </root>
    </mxGraphModel>
  </diagram>
</mxfile>
